<svg xmlns="http://www.w3.org/2000/svg" width="256" height="256" viewBox="0 0 256 256" role="img" aria-labelledby="title desc" shape-rendering="crispEdges">
  <title id="title">Clean pixel opencode pet</title>
  <desc id="desc">A clean pixel-art opencode desktop pet with a dark blocky body, white opencode mark, black center slot, small arms and feet, and seven colorful session balls.</desc>

  <!-- Transparent background by design: this can be dropped into Electron's transparent BrowserWindow. -->
  <g id="session-balls" data-note="7 colorful balls = 7 opencode/cmux sessions in the original sketch">
    <rect x="56" y="24" width="14" height="14" fill="#ff5d73" />
    <rect x="60" y="26" width="4" height="4" fill="#ffd1d8" />

    <rect x="90" y="16" width="14" height="14" fill="#ffb020" />
    <rect x="94" y="18" width="4" height="4" fill="#ffe3a3" />

    <rect x="124" y="20" width="14" height="14" fill="#28c76f" />
    <rect x="128" y="22" width="4" height="4" fill="#b9f6cf" />

    <rect x="154" y="38" width="14" height="14" fill="#2f8cff" />
    <rect x="158" y="40" width="4" height="4" fill="#c6dcff" />

    <rect x="178" y="68" width="14" height="14" fill="#8b5cf6" />
    <rect x="182" y="70" width="4" height="4" fill="#dccfff" />

    <rect x="188" y="104" width="14" height="14" fill="#06b6d4" />
    <rect x="192" y="106" width="4" height="4" fill="#b8f4ff" />

    <rect x="178" y="140" width="14" height="14" fill="#f97316" />
    <rect x="182" y="142" width="4" height="4" fill="#ffd1a8" />
  </g>

  <g id="pet-shadow" opacity="0.22">
    <rect x="54" y="206" width="108" height="10" fill="#000000" />
    <rect x="70" y="216" width="76" height="6" fill="#000000" />
  </g>

  <g id="pet-body" data-style="clean chunky pixel blocks">
    <!-- Feet -->
    <rect x="66" y="184" width="26" height="22" fill="#050505" />
    <rect x="124" y="184" width="26" height="22" fill="#050505" />
    <rect x="72" y="184" width="18" height="8" fill="#242424" />
    <rect x="130" y="184" width="18" height="8" fill="#242424" />

    <!-- Arms -->
    <rect x="34" y="110" width="18" height="42" fill="#080808" />
    <rect x="44" y="118" width="12" height="30" fill="#242424" />
    <rect x="158" y="110" width="18" height="42" fill="#080808" />
    <rect x="158" y="118" width="12" height="30" fill="#242424" />

    <!-- Main body silhouette -->
    <rect x="50" y="62" width="112" height="120" fill="#050505" />
    <rect x="42" y="82" width="128" height="80" fill="#050505" />
    <rect x="58" y="54" width="96" height="16" fill="#242424" />
    <rect x="58" y="70" width="96" height="16" fill="#1a1a1a" />
    <rect x="58" y="162" width="96" height="16" fill="#171717" />

    <!-- Subtle bevel blocks, intentionally sparse to avoid dirty/noisy pixels. -->
    <rect x="58" y="86" width="10" height="66" fill="#2b2b2b" opacity="0.9" />
    <rect x="142" y="86" width="10" height="66" fill="#000000" opacity="0.9" />

    <!-- Central opencode-inspired mark: white block + black vertical slot. -->
    <rect x="76" y="92" width="64" height="62" fill="#f7f5ef" />
    <rect x="84" y="100" width="48" height="46" fill="#ffffff" />
    <rect x="98" y="108" width="20" height="32" fill="#050505" />
    <rect x="118" y="116" width="8" height="18" fill="#050505" />

    <!-- Small stacked opencode-like corner blocks. -->
    <rect x="64" y="78" width="18" height="18" fill="#2f2f2f" />
    <rect x="70" y="84" width="14" height="14" fill="#f7f5ef" />
    <rect x="134" y="150" width="18" height="18" fill="#2f2f2f" />
    <rect x="128" y="144" width="14" height="14" fill="#f7f5ef" />
  </g>

  <g id="caption" fill="#111111" font-family="ui-monospace, SFMono-Regular, Menlo, monospace" font-size="10">
    <text x="24" y="238">clean pixel opencode pet · 7 session balls</text>
  </g>
</svg>
